<svg width="100" height="103" viewBox="0 0 100 103" fill="none" xmlns="http://www.w3.org/2000/svg">
<path d="M99.9794 102.209H0.460938V0.208984H99.9777V102.209H99.9794ZM1.91915 100.751H98.5211V1.6672H1.91915V100.751Z" fill="#82381A"/>
<path d="M71.8122 101.777H70.354C70.354 63.6087 39.3015 32.5562 1.13283 32.5562V31.098C40.1058 31.0964 71.8122 62.8044 71.8122 101.777Z" fill="#82381A"/>
<path d="M16.4719 18.1294V19.6595H8.22284V8.01829H16.3378V9.54844H9.8854V12.8245H15.8801V14.3547H9.8854V18.1294H16.4719Z" fill="#82381A"/>
<path d="M46.2509 16.6352H48.0132C48.2208 17.9234 49.2932 18.4073 50.5242 18.4073C51.8124 18.4073 52.7524 17.9414 52.7524 16.869C52.7524 16.0042 52.2538 15.5056 51.1307 15.1148L49.0349 14.3841C47.4721 13.8348 46.2084 12.9864 46.2084 11.0835C46.2084 9.15446 47.7222 7.82375 50.2414 7.82375C52.5448 7.82375 54.3986 9.07108 54.4983 11.3745H52.754C52.6707 10.0438 51.5983 9.30486 50.2349 9.30486C48.8371 9.30486 47.9151 9.88684 47.9151 10.9838C47.9151 12.0071 48.6884 12.5139 49.8442 12.9128L51.765 13.57C53.3033 14.0931 54.4591 15.092 54.4591 16.8134C54.4591 18.6345 52.929 19.89 50.5177 19.89C48.3892 19.8867 46.4765 18.9059 46.2509 16.6352Z" fill="#82381A"/>
<path d="M84.2136 8.03301H88.9871C91.5815 8.03301 92.8043 9.49613 92.8043 11.5085C92.8043 13.637 91.5325 15.0184 88.9871 15.0184H85.8778V19.6742H84.2152V8.03301H84.2136ZM91.1058 11.5085C91.1058 10.3119 90.3914 9.56315 89.0444 9.56315H85.8762V13.4882H89.0444C90.3914 13.4882 91.1058 12.7232 91.1058 11.5085Z" fill="#82381A"/>
<path d="M86.1917 45.5478H87.8542L92.6278 57.189H90.89L89.883 54.6453H84.1368L83.1232 57.189H81.4182L86.1917 45.5478ZM89.2945 53.1462L87.0238 47.3754L84.7286 53.1462H89.2945Z" fill="#82381A"/>
<path d="M83.1494 92.8434H86.1933V84.2625H83.1494V82.7323H90.8982V84.2625H87.8542V92.8434H90.8982V94.3735H83.1494V92.8434Z" fill="#82381A"/>
<path d="M6.78914 51.4019C6.78914 47.8757 8.97647 45.332 12.5517 45.332C15.6447 45.332 17.5574 47.3771 17.8566 49.3731H16.1106C15.6709 47.9836 14.4807 46.854 12.5517 46.854C9.94098 46.854 8.47786 48.8075 8.47786 51.4019C8.47786 53.8966 9.97368 55.8844 12.586 55.8844C14.6818 55.8844 15.7624 54.5619 16.1613 53.4977H17.9072C17.425 55.4431 15.5613 57.4048 12.586 57.4048C8.94214 57.4048 6.78914 54.7597 6.78914 51.4019Z" fill="#82381A"/>
<path d="M6.43603 88.5815C6.43603 85.106 8.88982 82.5116 12.349 82.5116C15.8409 82.5116 18.2603 85.106 18.2603 88.5815C18.2603 92.0244 15.7739 94.5844 12.349 94.5844C8.87184 94.5861 6.43603 92.0244 6.43603 88.5815ZM16.5716 88.5815C16.5716 85.9871 14.8927 84.0336 12.3474 84.0336C9.80203 84.0336 8.12312 85.9871 8.12312 88.5815C8.12312 91.0255 9.83636 93.0641 12.3474 93.0641C14.8584 93.0641 16.5716 91.0271 16.5716 88.5815Z" fill="#82381A"/>
<path d="M46.2509 91.3345H48.0132C48.2208 92.6227 49.2932 93.1066 50.5242 93.1066C51.8124 93.1066 52.7524 92.6407 52.7524 91.5683C52.7524 90.7035 52.2538 90.2049 51.1307 89.8141L49.0349 89.0834C47.4721 88.5341 46.2084 87.6857 46.2084 85.7828C46.2084 83.8538 47.7222 82.5231 50.2414 82.5231C52.5448 82.5231 54.3986 83.7704 54.4983 86.0738H52.754C52.6707 84.7431 51.5983 84.0042 50.2349 84.0042C48.8371 84.0042 47.9151 84.5861 47.9151 85.6831C47.9151 86.7064 48.6884 87.2132 49.8442 87.6121L51.765 88.2693C53.3033 88.7924 54.4591 89.7913 54.4591 91.5127C54.4591 93.3338 52.929 94.5893 50.5177 94.5893C48.3892 94.586 46.4765 93.6052 46.2509 91.3345Z" fill="#82381A"/>
</svg>
